<svg width="13" height="13" viewBox="0 0 13 13" fill="none" xmlns="http://www.w3.org/2000/svg">
<path d="M9.47851 0.0402072C10.1145 0.0694488 10.5542 0.162917 10.9604 0.320613C11.3456 0.464634 11.6943 0.691768 11.9818 0.985859C12.2759 1.27331 12.503 1.62203 12.647 2.00723C12.8047 2.414 12.8982 2.85314 12.9275 3.48915C12.9635 4.27763 12.9677 4.55542 12.9677 6.26606C12.9677 7.97669 12.9635 8.25448 12.9275 9.04296C12.8982 9.67897 12.8047 10.1186 12.647 10.5254C12.503 10.9104 12.2758 11.259 11.9818 11.5463C11.6944 11.8404 11.3456 12.0675 10.9604 12.2115C10.5537 12.3692 10.1145 12.4627 9.47851 12.4919C8.69003 12.5279 8.41276 12.5321 6.7016 12.5321C4.99045 12.5321 4.71265 12.5279 3.9247 12.4919C3.28869 12.4627 2.84902 12.3692 2.44225 12.2115C2.05724 12.0674 1.70869 11.8403 1.42141 11.5463C1.12731 11.2588 0.90018 10.9101 0.75616 10.5249C0.598464 10.1181 0.504996 9.67897 0.475754 9.04296C0.439724 8.25553 0.435547 7.97773 0.435547 6.26606C0.435547 4.5549 0.439724 4.27658 0.475754 3.48915C0.504996 2.85314 0.598464 2.41348 0.75616 2.00723C0.90018 1.62203 1.12731 1.27331 1.42141 0.985859C1.7087 0.691832 2.05724 0.464701 2.44225 0.320613C2.84954 0.162917 3.28869 0.0694488 3.9247 0.0402072C4.71213 0.00417737 4.98992 0 6.7016 0C8.41276 0 8.69108 0.00417737 9.47851 0.0402072ZM6.7016 1.39263C5.00977 1.39263 4.75077 1.39629 3.98788 1.43127C3.50383 1.4532 3.2135 1.51482 2.94667 1.61873C2.74186 1.693 2.5568 1.81321 2.4057 1.97015C2.24843 2.12098 2.12815 2.30612 2.05428 2.51112C1.95089 2.77743 1.88875 3.06828 1.86682 3.55233C1.83183 4.31522 1.82818 4.57422 1.82818 6.26606C1.82818 7.95789 1.83183 8.21689 1.86682 8.97978C1.88875 9.46383 1.95037 9.75416 2.05428 10.0205C2.14305 10.2481 2.23704 10.3928 2.4057 10.562C2.57488 10.7311 2.71952 10.8251 2.94667 10.9134C3.21298 11.0168 3.50383 11.0789 3.98788 11.1008C4.75129 11.1358 5.01029 11.1395 6.7016 11.1395C8.39344 11.1395 8.65191 11.1358 9.41533 11.1008C9.89938 11.0789 10.1897 11.0173 10.4565 10.9134C10.6613 10.8391 10.8464 10.7189 10.9975 10.562C11.1667 10.3928 11.2607 10.2481 11.3489 10.021C11.4523 9.75468 11.5145 9.46383 11.5364 8.97978C11.5714 8.21636 11.575 7.95737 11.575 6.26606C11.575 4.57474 11.5714 4.31575 11.5364 3.55233C11.5145 3.06828 11.4528 2.77795 11.3489 2.51164C11.2751 2.30647 11.1548 2.12115 10.9975 1.97015C10.8465 1.81283 10.6612 1.69255 10.456 1.61873C10.1897 1.51534 9.89886 1.4532 9.4148 1.43127C8.65191 1.39629 8.39291 1.39263 6.70108 1.39263M6.70108 9.51501C5.8394 9.51501 5.01302 9.17271 4.40373 8.56341C3.79443 7.95411 3.45213 7.12773 3.45213 6.26606C3.45213 5.40438 3.79443 4.578 4.40373 3.9687C5.01302 3.3594 5.8394 3.01711 6.70108 3.01711C7.56275 3.01711 8.38914 3.3594 8.99843 3.9687C9.60773 4.578 9.95003 5.40438 9.95003 6.26606C9.95003 7.12773 9.60773 7.95411 8.99843 8.56341C8.38914 9.17271 7.56275 9.51501 6.70108 9.51501ZM6.70108 8.1229C7.19354 8.1229 7.66584 7.92727 8.01406 7.57904C8.36229 7.23081 8.55792 6.75852 8.55792 6.26606C8.55792 5.77359 8.36229 5.3013 8.01406 4.95307C7.66584 4.60485 7.19354 4.40921 6.70108 4.40921C6.20861 4.40921 5.73632 4.60485 5.38809 4.95307C5.03987 5.3013 4.84424 5.77359 4.84424 6.26606C4.84424 6.75852 5.03987 7.23081 5.38809 7.57904C5.73632 7.92727 6.20861 8.1229 6.70108 8.1229ZM9.95003 3.71316C9.76536 3.71316 9.58824 3.6398 9.45766 3.50921C9.32708 3.37863 9.25371 3.20152 9.25371 3.01684C9.25371 2.83217 9.32708 2.65506 9.45766 2.52448C9.58824 2.39389 9.76536 2.32053 9.95003 2.32053C10.1347 2.32053 10.3118 2.39389 10.4424 2.52448C10.573 2.65506 10.6463 2.83217 10.6463 3.01684C10.6463 3.20152 10.573 3.37863 10.4424 3.50921C10.3118 3.6398 10.1347 3.71316 9.95003 3.71316Z" fill="#1E1E1E"/>
</svg>
