<svg width="744" height="486" viewBox="0 0 744 486" fill="none" xmlns="http://www.w3.org/2000/svg">
<path fill-rule="evenodd" clip-rule="evenodd" d="M479.054 283.426C485.872 267.977 489.68 250.783 489.68 243.046C489.68 175.983 437.577 121.609 373.314 121.609C309.054 121.609 256.952 175.983 256.952 243.046C256.952 310.106 315.134 354.103 373.314 354.103C410.532 354.103 443.657 335.9 464.906 307.557C470.474 300.146 475.249 292.051 479.054 283.426ZM373.314 293.386C387.86 293.386 401.157 287.811 411.383 278.591C423.714 267.474 429.143 251.02 429.143 243.046C429.143 209.514 405.474 182.326 373.314 182.326C341.157 182.326 314.857 209.469 314.857 243C314.857 266.154 341.157 293.386 373.314 293.386Z" fill="black"/>
<path fill-rule="evenodd" clip-rule="evenodd" d="M3.2033 250.783C3.65787 251.374 2.74873 250.22 3.2033 250.783C-0.353272 245.917 -0.26376 240.131 3.2193 235.209C3.47444 234.849 3.73444 234.474 3.99787 234.091C108.6 81.3769 238.316 0.142853 372.406 0.142853C506.357 0.142853 635.957 81.1583 740.446 233.566C742.428 236.457 743.428 239.429 743.428 242.986C743.428 246.717 742.266 249.854 740.18 252.889C635.72 405.006 506.234 485.857 372.406 485.857C237.975 485.857 107.919 404.237 3.2033 250.783ZM84.5453 224.5C75.9456 235.191 75.9456 250.777 84.545 261.471C174.119 372.837 274.977 425.14 372.406 425.14C469.837 425.14 570.694 372.837 660.268 261.471C668.868 250.777 668.868 235.191 660.268 224.5C570.694 113.136 469.837 60.8609 372.406 60.8609C274.977 60.8609 174.119 113.136 84.5453 224.5Z" fill="black"/>
</svg>
