<svg width="22" height="22" viewBox="0 0 22 22" fill="none" xmlns="http://www.w3.org/2000/svg">
<path d="M1.0293 18.5C1.0293 17.1739 1.55608 15.9021 2.49376 14.9645C3.43144 14.0268 4.70321 13.5 6.0293 13.5H16.0293C17.3554 13.5 18.6271 14.0268 19.5648 14.9645C20.5025 15.9021 21.0293 17.1739 21.0293 18.5C21.0293 19.163 20.7659 19.7989 20.2971 20.2678C19.8282 20.7366 19.1923 21 18.5293 21H3.5293C2.86626 21 2.23037 20.7366 1.76153 20.2678C1.29269 19.7989 1.0293 19.163 1.0293 18.5Z" stroke="#1E1E1E" stroke-width="1.5" stroke-linejoin="round"/>
<path d="M11.0293 8.5C13.1004 8.5 14.7793 6.82107 14.7793 4.75C14.7793 2.67893 13.1004 1 11.0293 1C8.95823 1 7.2793 2.67893 7.2793 4.75C7.2793 6.82107 8.95823 8.5 11.0293 8.5Z" stroke="#1E1E1E" stroke-width="1.5"/>
</svg>
