<svg width="25" height="25" viewBox="0 0 25 25" fill="none" xmlns="http://www.w3.org/2000/svg">
<g clip-path="url(#clip0_874_226)">
<path d="M12.5 0C11.3525 0 10.2458 0.146484 9.17969 0.439453C8.11361 0.732422 7.1167 1.15153 6.18896 1.69678C5.26123 2.24202 4.41895 2.89307 3.66211 3.6499C2.90527 4.40674 2.25423 5.25309 1.70898 6.18896C1.16374 7.12484 0.744629 8.12175 0.45166 9.17969C0.158691 10.2376 0.00813866 11.3444 0 12.5C0 13.6475 0.146484 14.7542 0.439453 15.8203C0.732422 16.8864 1.15153 17.8833 1.69678 18.811C2.24203 19.7388 2.89307 20.5811 3.6499 21.3379C4.40674 22.0947 5.25309 22.7458 6.18896 23.291C7.12484 23.8363 8.12174 24.2554 9.17969 24.5483C10.2376 24.8413 11.3444 24.9919 12.5 25C13.6475 25 14.7542 24.8535 15.8203 24.5605C16.8864 24.2676 17.8833 23.8485 18.811 23.3032C19.7388 22.758 20.5811 22.1069 21.3379 21.3501C22.0947 20.5933 22.7458 19.7469 23.291 18.811C23.8363 17.8752 24.2554 16.8823 24.5483 15.8325C24.8413 14.7827 24.9919 13.6719 25 12.5C25 11.3525 24.8535 10.2458 24.5605 9.17969C24.2676 8.11361 23.8485 7.1167 23.3032 6.18896C22.758 5.26123 22.1069 4.41895 21.3501 3.66211C20.5933 2.90527 19.7469 2.25423 18.811 1.70898C17.8752 1.16374 16.8823 0.744629 15.8325 0.45166C14.7827 0.158691 13.6719 0.00813802 12.5 0ZM12.5 23.4375C11.499 23.4375 10.5347 23.3073 9.60693 23.0469C8.6792 22.7865 7.80843 22.4202 6.99463 21.9482C6.18083 21.4762 5.44027 20.9025 4.77295 20.2271C4.10563 19.5516 3.53597 18.8151 3.06396 18.0176C2.59196 17.2201 2.22168 16.3493 1.95312 15.4053C1.68457 14.4613 1.55436 13.4928 1.5625 12.5C1.5625 11.499 1.69271 10.5347 1.95312 9.60693C2.21354 8.6792 2.57975 7.80843 3.05176 6.99463C3.52376 6.18083 4.09749 5.44027 4.77295 4.77295C5.4484 4.10563 6.1849 3.53597 6.98242 3.06396C7.77995 2.59196 8.65072 2.22168 9.59473 1.95312C10.5387 1.68457 11.5072 1.55436 12.5 1.5625C13.501 1.5625 14.4653 1.69271 15.3931 1.95312C16.3208 2.21354 17.1916 2.57975 18.0054 3.05176C18.8192 3.52376 19.5597 4.09749 20.2271 4.77295C20.8944 5.4484 21.464 6.1849 21.936 6.98242C22.408 7.77995 22.7783 8.65072 23.0469 9.59473C23.3154 10.5387 23.4456 11.5072 23.4375 12.5C23.4375 13.501 23.3073 14.4653 23.0469 15.3931C22.7865 16.3208 22.4202 17.1916 21.9482 18.0054C21.4762 18.8192 20.9025 19.5597 20.2271 20.2271C19.5516 20.8944 18.8151 21.464 18.0176 21.936C17.2201 22.408 16.3493 22.7783 15.4053 23.0469C14.4613 23.3154 13.4928 23.4456 12.5 23.4375ZM5.2124 12.6953L4.62646 10.9375H3.71094L4.74854 14.0625H5.66406L6.25 12.3047L6.83594 14.0625H7.75146L8.78906 10.9375H7.87354L7.2876 12.6953L6.70166 10.9375H5.79834L5.2124 12.6953ZM10.8765 10.9375H9.96094L10.9985 14.0625H11.9141L12.5 12.3047L13.0859 14.0625H14.0015L15.0391 10.9375H14.1235L13.5376 12.6953L12.9517 10.9375H12.0483L11.4624 12.6953L10.8765 10.9375ZM17.1265 10.9375H16.2109L17.2485 14.0625H18.1641L18.75 12.3047L19.3359 14.0625H20.2515L21.2891 10.9375H20.3735L19.7876 12.6953L19.2017 10.9375H18.2983L17.7124 12.6953L17.1265 10.9375Z" fill="black"/>
</g>
<defs>
<clipPath id="clip0_874_226">
<rect width="25" height="25" fill="white" transform="matrix(-1 0 0 1 25 0)"/>
</clipPath>
</defs>
</svg>
