<svg width="22" height="22" viewBox="0 0 22 22" fill="none" xmlns="http://www.w3.org/2000/svg">
<path d="M21.0494 22L12.6414 13.5921C11.9701 14.1641 11.198 14.6067 10.3253 14.92C9.45255 15.2333 8.57532 15.3899 7.69362 15.3899C5.54353 15.3899 3.72373 14.6456 2.23424 13.157C0.744746 11.6675 0 9.8482 0 7.69899C0 5.54979 0.743851 3.72955 2.23155 2.23827C3.72015 0.746089 5.53905 0 7.68825 0C9.83835 0 11.659 0.744746 13.1503 2.23424C14.6416 3.72373 15.3872 5.54397 15.3872 7.69497C15.3872 8.62769 15.2221 9.53043 14.8918 10.4032C14.5606 11.2759 14.1265 12.0225 13.5894 12.6428L21.9973 21.0494L21.0494 22ZM7.69362 14.0459C9.47493 14.0459 10.9792 13.4327 12.2064 12.2064C13.4327 10.9801 14.0459 9.47582 14.0459 7.69362C14.0459 5.91232 13.4327 4.4085 12.2064 3.18218C10.9801 1.95585 9.47627 1.34269 7.69497 1.34269C5.91366 1.34269 4.4094 1.95585 3.18218 3.18218C1.95585 4.4085 1.34269 5.91232 1.34269 7.69362C1.34269 9.47493 1.95585 10.9787 3.18218 12.2051C4.4085 13.4314 5.91232 14.0459 7.69362 14.0459Z" fill="#1E1E1E"/>
</svg>
