<svg width="14" height="13" viewBox="0 0 14 13" fill="none" xmlns="http://www.w3.org/2000/svg">
<path d="M2.73962 1.39308C2.73944 1.76236 2.59494 2.11644 2.33793 2.37743C2.08091 2.63842 1.73242 2.78494 1.36912 2.78476C1.00583 2.78457 0.657484 2.6377 0.400724 2.37645C0.143963 2.1152 -0.000181477 1.76097 1.71474e-07 1.39168C0.000181819 1.0224 0.144675 0.668317 0.401692 0.407326C0.65871 0.146335 1.0072 -0.000184467 1.37049 1.74299e-07C1.73379 0.000184815 2.08213 0.147059 2.3389 0.408311C2.59566 0.669563 2.7398 1.02379 2.73962 1.39308ZM2.78071 3.81582H0.0410944V12.5321H2.78071V3.81582ZM7.10931 3.81582H4.38339V12.5321H7.08191V7.95815C7.08191 5.41009 10.3489 5.17339 10.3489 7.95815V12.5321H13.0543V7.01133C13.0543 2.71584 8.21885 2.87596 7.08191 4.98541L7.10931 3.81582Z" fill="#1E1E1E"/>
</svg>
